<svg width="205" height="141" viewBox="0 0 205 141" fill="none" xmlns="http://www.w3.org/2000/svg">
<g filter="url(#filter0_d)">
<path d="M42 38C42 36.8954 42.8954 36 44 36H141C142.105 36 143 36.8954 143 38V71C143 72.1046 142.105 73 141 73H44C42.8954 73 42 72.1046 42 71V38Z" fill="white"/>
</g>
<ellipse cx="59.6383" cy="61.1188" rx="5.6383" ry="1.54777" fill="#F2F2F2"/>
<path fill-rule="evenodd" clip-rule="evenodd" d="M59.4214 58.2445C59.4214 58.2445 63.5417 54.7067 63.5417 51.8323C63.5417 49.5121 61.697 47.6312 59.4214 47.6312C57.1459 47.6312 55.3011 49.5121 55.3011 51.8323C55.3011 54.9278 59.4214 58.2445 59.4214 58.2445ZM59.4214 53.3801C60.4993 53.3801 61.3731 52.4891 61.3731 51.3901C61.3731 50.2911 60.4993 49.4001 59.4214 49.4001C58.3435 49.4001 57.4697 50.2911 57.4697 51.3901C57.4697 52.4891 58.3435 53.3801 59.4214 53.3801Z" fill="#13F1FC"/>
<path d="M50 73L36 88L67 73H50Z" fill="white"/>
<path d="M77.109 58.182C76.2077 58.182 75.406 57.987 74.704 57.597C74.002 57.207 73.4517 56.6567 73.053 55.946C72.663 55.2267 72.468 54.3947 72.468 53.45C72.468 52.5053 72.6673 51.6777 73.066 50.967C73.4733 50.2477 74.0323 49.693 74.743 49.303C75.4537 48.913 76.2597 48.718 77.161 48.718C77.6117 48.718 78.0407 48.7657 78.448 48.861C78.8553 48.9563 79.2193 49.0863 79.54 49.251L79.384 50.681C78.63 50.3257 77.8847 50.148 77.148 50.148C76.5067 50.148 75.9563 50.291 75.497 50.577C75.0463 50.8543 74.704 51.2443 74.47 51.747C74.236 52.241 74.119 52.8087 74.119 53.45C74.119 54.0913 74.2317 54.6633 74.457 55.166C74.691 55.66 75.0333 56.05 75.484 56.336C75.9347 56.6133 76.4807 56.752 77.122 56.752C77.5293 56.752 77.9107 56.7087 78.266 56.622C78.63 56.5353 79.0027 56.4053 79.384 56.232L79.54 57.649C78.812 58.0043 78.0017 58.182 77.109 58.182ZM82.027 48.9H83.483V50.395H82.027V48.9ZM82.027 51.552H83.483V58H82.027V51.552ZM88.4681 58.13C87.9047 58.13 87.4757 57.9697 87.1811 57.649C86.8951 57.3283 86.7521 56.9427 86.7521 56.492V52.722H85.7771L85.9071 51.552H86.7521V50.07L88.2081 49.914V51.552H89.7291V52.722H88.2081V55.816C88.2081 56.1973 88.2297 56.4617 88.2731 56.609C88.3164 56.7477 88.4074 56.8387 88.5461 56.882C88.6934 56.9253 88.9534 56.947 89.3261 56.947H89.7161L89.5861 58.13H88.4681ZM94.0167 57.623L91.3257 51.552H92.9377L94.7187 55.933L96.4477 51.552H98.0727L94.0557 61.146H92.5607L94.0167 57.623ZM104.604 55.738H101.224L100.431 58H98.9229L102.173 48.9H103.655L106.892 58H105.397L104.604 55.738ZM104.123 54.399L102.914 50.941L101.692 54.399H104.123ZM112.366 51.435C112.964 51.435 113.479 51.5823 113.913 51.877C114.346 52.1717 114.675 52.5747 114.901 53.086C115.126 53.5887 115.239 54.152 115.239 54.776C115.239 55.4 115.126 55.9677 114.901 56.479C114.684 56.9903 114.359 57.3933 113.926 57.688C113.492 57.9827 112.972 58.13 112.366 58.13C111.95 58.13 111.59 58.078 111.287 57.974C110.992 57.87 110.723 57.7053 110.481 57.48V61.146H109.025V51.552H110.182L110.338 52.241C110.615 51.981 110.914 51.7817 111.235 51.643C111.564 51.5043 111.941 51.435 112.366 51.435ZM112.119 56.908C112.63 56.908 113.029 56.7173 113.315 56.336C113.601 55.9547 113.744 55.4347 113.744 54.776C113.744 54.126 113.601 53.6103 113.315 53.229C113.029 52.8477 112.63 52.657 112.119 52.657C111.573 52.657 111.148 52.8433 110.845 53.216C110.55 53.5887 110.403 54.1087 110.403 54.776C110.403 55.452 110.55 55.9763 110.845 56.349C111.148 56.7217 111.573 56.908 112.119 56.908ZM121.042 51.435C121.64 51.435 122.155 51.5823 122.589 51.877C123.022 52.1717 123.351 52.5747 123.577 53.086C123.802 53.5887 123.915 54.152 123.915 54.776C123.915 55.4 123.802 55.9677 123.577 56.479C123.36 56.9903 123.035 57.3933 122.602 57.688C122.168 57.9827 121.648 58.13 121.042 58.13C120.626 58.13 120.266 58.078 119.963 57.974C119.668 57.87 119.399 57.7053 119.157 57.48V61.146H117.701V51.552H118.858L119.014 52.241C119.291 51.981 119.59 51.7817 119.911 51.643C120.24 51.5043 120.617 51.435 121.042 51.435ZM120.795 56.908C121.306 56.908 121.705 56.7173 121.991 56.336C122.277 55.9547 122.42 55.4347 122.42 54.776C122.42 54.126 122.277 53.6103 121.991 53.229C121.705 52.8477 121.306 52.657 120.795 52.657C120.249 52.657 119.824 52.8433 119.521 53.216C119.226 53.5887 119.079 54.1087 119.079 54.776C119.079 55.452 119.226 55.9763 119.521 56.349C119.824 56.7217 120.249 56.908 120.795 56.908Z" fill="#A5ADB1"/>
<defs>
<filter id="filter0_d" x="0" y="0" width="205" height="141" filterUnits="userSpaceOnUse" color-interpolation-filters="sRGB">
<feFlood flood-opacity="0" result="BackgroundImageFix"/>
<feColorMatrix in="SourceAlpha" type="matrix" values="0 0 0 0 0 0 0 0 0 0 0 0 0 0 0 0 0 0 127 0" result="hardAlpha"/>
<feOffset dx="10" dy="16"/>
<feGaussianBlur stdDeviation="26"/>
<feColorMatrix type="matrix" values="0 0 0 0 0.739879 0 0 0 0 0.826463 0 0 0 0 0.873362 0 0 0 0.4 0"/>
<feBlend mode="normal" in2="BackgroundImageFix" result="effect1_dropShadow"/>
<feBlend mode="normal" in="SourceGraphic" in2="effect1_dropShadow" result="shape"/>
</filter>
</defs>
</svg>
