<svg width="52" height="99" viewBox="0 0 52 99" fill="none" xmlns="http://www.w3.org/2000/svg">
<path d="M14.4928 92.7343C16.5465 88.9605 14.2189 84.3374 11.5627 80.9677C8.90651 77.598 5.66155 74.1187 5.73001 69.8106C5.8327 63.6465 12.3705 60.0096 17.594 56.7427C21.4709 54.318 25.0466 51.4419 28.2462 48.1745C29.5889 46.9197 30.6971 45.4354 31.5186 43.7912C32.6002 41.3803 32.5728 38.6407 32.5044 35.9969C32.2762 27.2028 31.8403 18.4177 31.1968 9.64185" stroke="#3F3D56" stroke-width="4" stroke-miterlimit="10"/>
<path d="M41.1302 9.15546C41.0574 7.54547 40.5802 5.9798 39.7426 4.60314C38.905 3.22648 37.7341 2.08325 36.3381 1.27908L34.1884 5.53915L34.2569 0.38871C32.3084 -0.183918 30.2284 -0.122542 28.317 0.564033C26.4056 1.25061 24.7616 2.52689 23.6222 4.20872C22.4827 5.89056 21.9067 7.89103 21.9772 9.92158C22.0477 11.9521 22.7611 13.9078 24.0145 15.5064C25.2679 17.1051 26.9965 18.2641 28.9509 18.8163C30.9053 19.3685 32.9845 19.2854 34.8886 18.5788C36.7927 17.8723 38.4233 16.5789 39.5451 14.8852C40.6669 13.1915 41.222 11.1852 41.1302 9.15546Z" fill="#57B894"/>
<path d="M24.0154 74.2214C23.0076 76.1757 21.359 77.724 19.3459 78.6069C17.3328 79.4897 15.0776 79.6535 12.9581 79.0708C10.8387 78.488 8.98384 77.1941 7.70449 75.4059C6.42514 73.6178 5.79901 71.444 5.93104 69.2489C6.06307 67.0539 6.94524 64.9709 8.42969 63.3491C9.91415 61.7274 11.9107 60.6653 14.0847 60.341C16.2587 60.0168 18.478 60.45 20.3708 61.568C22.2635 62.686 23.7147 64.4209 24.481 66.482L18.4771 71.3654L25.0834 69.8312C25.085 71.3592 24.7187 72.8651 24.0154 74.2214Z" fill="#57B894"/>
<path d="M19.2233 55.5577C17.9621 55.6194 16.7012 55.4311 15.513 55.0037C14.3248 54.5764 13.2327 53.9183 12.2995 53.0674C11.3662 52.2165 10.6103 51.1895 10.075 50.0454C9.5397 48.9013 9.23565 47.6626 9.18034 46.4005C9.10454 44.8966 9.38854 43.3962 10.0087 42.024C10.584 40.7392 11.4338 39.5963 12.4983 38.6757C13.5628 37.755 14.8162 37.0791 16.17 36.6954L16.1221 40.6611L18.2923 36.353C19.5534 36.2913 20.8143 36.4796 22.0026 36.907C23.1908 37.3343 24.2829 37.9924 25.2161 38.8433C26.1494 39.6942 26.9053 40.7212 27.4406 41.8654C27.9759 43.0095 28.2799 44.2482 28.3352 45.5102C28.3915 46.6194 28.2524 47.7298 27.9245 48.7909C27.3463 50.6774 26.2005 52.3396 24.6433 53.5506C23.0861 54.7616 21.1934 55.4626 19.2233 55.5577Z" fill="#57B894"/>
<path d="M42.5748 40.0311C41.0999 40.0853 39.6325 39.7981 38.2868 39.1917C36.9412 38.5854 35.7537 37.6763 34.8169 36.5354C33.8801 35.3945 33.2193 34.0526 32.886 32.6142C32.5528 31.1758 32.556 29.6799 32.8955 28.243C33.235 26.8061 33.9016 25.467 34.8434 24.3302C35.7851 23.1934 36.9766 22.2895 38.3248 21.689C39.6731 21.0886 41.1418 20.8077 42.6164 20.8683C44.091 20.929 45.5316 21.3295 46.8261 22.0386L45.1283 26.696L48.6197 23.3399C50.0312 24.6176 51.0305 26.2869 51.4901 28.135C51.9497 29.983 51.8488 31.9261 51.2004 33.7166C50.5519 35.5071 49.3852 37.0639 47.849 38.1884C46.3129 39.313 44.4767 39.9545 42.5748 40.0311Z" fill="#57B894"/>
<path opacity="0.1" d="M39.8364 11.7171C37.6252 11.9636 35.4619 12.6554 33.237 12.7924C31.012 12.9294 28.568 12.3952 27.1646 10.6623C26.4047 9.73087 26.0214 8.55283 25.3847 7.53917C24.7775 6.59285 23.9477 5.80976 22.9681 5.25842C22.3833 6.47114 22.0603 7.79348 22.0203 9.13936C21.9802 10.4852 22.2239 11.8245 22.7355 13.0699C23.2471 14.3153 24.0152 15.4389 24.9897 16.3676C25.9641 17.2963 27.1232 18.0093 28.3914 18.4601C29.6596 18.9109 31.0084 19.0895 32.3502 18.9841C33.6919 18.8788 34.9964 18.4919 36.1788 17.8487C37.3611 17.2055 38.3948 16.3203 39.2126 15.2509C40.0303 14.1815 40.6138 12.9517 40.9249 11.6418C40.5621 11.6554 40.1992 11.6828 39.8364 11.7171Z" fill="black"/>
<path opacity="0.1" d="M42.5747 40.0308C40.9216 40.103 39.2778 39.7475 37.802 38.9988C36.3263 38.25 35.0683 37.1333 34.1497 35.7565C33.231 34.3796 32.6827 32.789 32.5576 31.1383C32.4324 29.4876 32.7348 27.8325 33.4355 26.3328C34.2017 26.8459 34.8599 27.5044 35.3728 28.271C36.0574 29.3052 36.4682 30.497 37.276 31.449C38.7684 33.2092 41.3288 33.7845 43.6427 33.6749C45.9566 33.5653 48.2021 32.9147 50.4886 32.7024C50.8104 32.7024 51.139 32.6475 51.4607 32.6407C50.9849 34.6719 49.8598 36.4925 48.2561 37.8262C46.6525 39.1598 44.6578 39.9339 42.5747 40.0308Z" fill="black"/>
<path opacity="0.1" d="M19.2233 55.5577C17.9621 55.6194 16.7012 55.4311 15.513 55.0037C14.3248 54.5764 13.2327 53.9183 12.2995 53.0674C11.3662 52.2165 10.6103 51.1895 10.075 50.0454C9.5397 48.9013 9.23565 47.6626 9.18034 46.4006C9.10454 44.8966 9.38854 43.3962 10.0087 42.024C10.8074 42.5429 11.5036 43.2046 12.0625 43.976C12.8087 45.0307 13.2742 46.243 14.1163 47.2156C15.7387 49.0237 18.4634 49.6607 20.9211 49.599C23.3788 49.5374 25.59 48.9621 27.9518 48.784C27.3733 50.6761 26.2238 52.3428 24.6611 53.5555C23.0984 54.7682 21.199 55.4676 19.2233 55.5577Z" fill="black"/>
<path opacity="0.1" d="M24.0155 74.2214C23.5008 75.3718 22.7647 76.4095 21.8491 77.2752C20.9336 78.141 19.8566 78.8178 18.6796 79.2671C17.5026 79.7165 16.2486 79.9295 14.9893 79.894C13.7301 79.8585 12.4901 79.5752 11.3402 79.0603C10.1904 78.5453 9.1532 77.8089 8.28785 76.8929C7.42249 75.977 6.74594 74.8995 6.29681 73.7219C5.84769 72.5444 5.6348 71.2899 5.67028 70.03C5.70576 68.7702 5.98893 67.5296 6.50362 66.3793C7.29367 66.8993 8.00394 67.5314 8.61216 68.2559C9.52266 69.3723 10.1251 70.6325 11.1794 71.6804C13.1442 73.6118 16.3138 74.42 19.1412 74.4817C20.7696 74.4883 22.397 74.4014 24.0155 74.2214Z" fill="black"/>
<path d="M0 88.392C0 88.392 7.58526 88.1591 9.8718 86.529C12.1583 84.8989 21.5098 82.9538 22.1054 85.5702C22.701 88.1865 33.4971 98.5834 24.9397 98.6245C16.3823 98.6656 5.04542 97.2889 2.76573 95.8849C0.486045 94.4808 0 88.392 0 88.392Z" fill="#656380"/>
<path opacity="0.2" d="M25.0903 97.7135C16.526 97.7819 5.19604 96.3779 2.91635 94.9738C1.17748 93.9191 0.486057 90.1179 0.253296 88.3645H0C0 88.3645 0.479214 94.4807 2.73837 95.8984C4.99752 97.3162 16.348 98.6929 24.9123 98.6381C27.3836 98.6381 28.2325 97.7409 28.1915 96.4327C27.8697 97.2066 26.9318 97.6998 25.0903 97.7135Z" fill="black"/>
</svg>
