<svg width="1168" height="1758" viewBox="0 0 1168 1758" fill="none" xmlns="http://www.w3.org/2000/svg">
<path d="M78.5 1C78.6667 41.6188 93.9999 129.615 154 156.648C229 190.44 282.5 190.952 358.5 189.928C419.3 189.109 737.667 186.159 882.5 186.5C921 186.591 988.047 200.227 1034 241.5C1088 290 1089.16 335.203 1091.5 375.5C1093.5 409.906 1091.5 586.186 1091.5 642C1091.5 769 1011.5 851 863 852L293 858.93C165 858.93 82 910.916 75.5 1042.5V1353C70 1462 155 1537.67 244.5 1537.67C351 1537.67 416 1539.37 450 1537.67C521 1537.67 585 1587 589 1669.5C589 1674.01 589 1696.23 589 1757.5" stroke="#E6E8EC" stroke-opacity="0.3" stroke-width="150"/>
<path d="M78.5 1C78.6667 41.6188 93.9999 129.615 154 156.648C229 190.44 282.5 190.952 358.5 189.928C419.3 189.109 737.667 186.159 882.5 186.5C921 186.591 988.047 200.227 1034 241.5C1088 290 1089.16 335.203 1091.5 375.5C1093.5 409.906 1091.5 586.186 1091.5 642C1091.5 769 1011.5 851 863 852L293 858.93C165 858.93 82 910.916 75.5 1042.5V1353C70 1462 155 1537.67 244.5 1537.67C351 1537.67 416 1539.37 450 1537.67C521 1537.67 585 1587 589 1669.5C589 1674.01 589 1696.23 589 1757.5" stroke="url(#paint0_linear)" stroke-width="150"/>
<path d="M78.2532 1C78.4198 41.6188 93.7531 129.615 153.753 156.648C228.753 190.44 282.253 190.952 358.253 189.928C419.053 189.109 737.42 186.159 882.253 186.5C920.753 186.591 987.8 200.227 1033.75 241.5C1087.75 290 1088.91 335.203 1091.25 375.5C1093.25 409.906 1091.25 586.186 1091.25 642C1091.25 769 1011.25 851 862.753 852L292.753 858.93C164.753 858.93 81.7532 910.916 75.2532 1042.5V1353C69.7532 1462 154.753 1537.67 244.253 1537.67C350.753 1537.67 415.753 1539.37 449.753 1537.67C520.753 1537.67 584.753 1587 588.753 1669.5C588.753 1674.01 588.753 1677.23 588.753 1738.5" stroke="url(#paint1_linear)" stroke-width="3" stroke-dasharray="10 15"/>
<defs>
<linearGradient id="paint0_linear" x1="586.052" y1="1" x2="586.052" y2="1707.5" gradientUnits="userSpaceOnUse">
<stop stop-color="white"/>
<stop offset="0.541436" stop-color="#E6E8EC" stop-opacity="0.1"/>
<stop offset="1" stop-color="white"/>
</linearGradient>
<linearGradient id="paint1_linear" x1="585.805" y1="1" x2="585.805" y2="1707.5" gradientUnits="userSpaceOnUse">
<stop/>
<stop offset="0.209945" stop-color="#B1B1B1"/>
<stop offset="0.834254" stop-color="#BCBCBC"/>
<stop offset="1" stop-color="#E4E4E4"/>
</linearGradient>
</defs>
</svg>
