<svg width="197" height="255" viewBox="0 0 197 255" fill="none" xmlns="http://www.w3.org/2000/svg">
<g clip-path="url(#clip0)">
<path d="M77.5783 25.6737C85.6911 25.6737 92.2677 20.5416 92.2677 14.2109C92.2677 7.88018 85.6911 2.74811 77.5783 2.74811C69.4656 2.74811 62.8889 7.88018 62.8889 14.2109C62.8889 20.5416 69.4656 25.6737 77.5783 25.6737Z" fill="#3F3D56"/>
<path d="M106.957 74.1693C118.64 74.1693 128.11 64.6945 128.11 53.0066C128.11 41.3188 118.64 31.844 106.957 31.844C95.2746 31.844 85.8041 41.3188 85.8041 53.0066C85.8041 64.6945 95.2746 74.1693 106.957 74.1693Z" fill="#3F3D56"/>
<path d="M174.085 245.967C177.004 245.967 179.371 243.599 179.371 240.678C179.371 237.757 177.004 235.389 174.085 235.389C171.165 235.389 168.798 237.757 168.798 240.678C168.798 243.599 171.165 245.967 174.085 245.967Z" fill="#3F3D56"/>
<path d="M146.472 245.967C149.391 245.967 151.758 243.599 151.758 240.678C151.758 237.757 149.391 235.389 146.472 235.389C143.552 235.389 141.185 237.757 141.185 240.678C141.185 243.599 143.552 245.967 146.472 245.967Z" fill="#3F3D56"/>
<path d="M154.698 113.117H152.347V178.075H154.698V113.117Z" fill="#3F3D56"/>
<path d="M167.329 113.117H164.978V178.075H167.329V113.117Z" fill="#3F3D56"/>
<path d="M152.921 114.88L152.332 113.117C152.332 113.117 158.796 105.476 167.903 111.635L167.314 114.284H164.963C164.963 114.284 161.146 111.08 154.683 114.739L152.921 114.88Z" fill="#3F3D56"/>
<path d="M113.421 103.858H92.2678V130.898H113.421V103.858Z" fill="#FBBEBE"/>
<path d="M128.11 96.2134H121.647V109.147H128.11V96.2134Z" fill="#FBBEBE"/>
<path d="M95.059 235.389L92.4158 243.326C92.4158 243.326 91.2386 249.204 95.059 249.496C98.8794 249.789 105.054 248.615 105.054 248.615C105.054 248.615 105.935 245.97 105.054 243.619C104.173 241.267 101.53 234.8 101.53 234.8L95.059 235.389Z" fill="#3C354C"/>
<path d="M115.035 235.682C115.035 235.682 110.922 245.971 114.154 247.733C117.386 249.496 121.795 248.026 125.319 249.496C128.843 250.967 138.539 247.441 138.539 247.441C138.539 247.441 139.716 244.208 133.252 243.326C133.252 243.326 126.218 238.034 126.218 236.86C126.218 235.685 122.106 235.682 122.106 235.682H115.035Z" fill="#3C354C"/>
<path d="M114.154 118.409C114.154 118.409 90.0651 123.406 87.1294 121.935C84.1938 120.465 81.2544 141.935 81.2544 141.935C81.2544 141.935 80.0772 154.868 84.1901 172.209C88.3029 189.549 84.1901 198.075 84.1901 198.075C84.1901 198.075 84.7787 214.534 89.1877 222.178C93.5967 229.823 93.593 236.874 93.593 236.874C93.593 236.874 102.108 237.756 102.407 235.697C102.407 235.697 98.8794 227.467 99.468 219.826C100.057 212.186 97.7059 197.486 97.7059 197.486C97.7059 197.486 101.526 178.968 100.938 171.931C100.349 164.894 102.996 149.887 104.462 152.531C105.928 155.176 109.752 168.109 109.752 170.757C109.752 173.405 111.233 191.034 112.103 192.212C112.973 193.39 112.688 196.916 112.395 198.679C112.103 200.442 112.103 213.667 113.569 220.723C115.035 227.778 113.865 235.711 114.157 236.889C114.45 238.067 122.972 237.182 123.264 235.123C123.264 235.123 124.441 222.486 125.03 220.723C125.619 218.96 125.896 196.59 125.896 196.59C125.896 196.59 126.481 179.249 127.07 177.486C127.658 175.723 128.551 137.805 124.719 133.413C120.888 129.02 122.368 117.835 122.368 117.835L114.154 118.409Z" fill="#3F3D56"/>
<path d="M94.3519 67.2064C93.2636 69.2582 92.1678 71.3286 91.4866 73.5545C90.8055 75.7804 90.5685 78.1914 91.209 80.4284C91.6672 81.8257 92.3043 83.1578 93.1044 84.3914C93.7408 85.5703 94.5479 86.6486 95.4996 87.5913C97.7207 89.6209 100.949 90.0283 103.947 90.3468C104.462 90.4328 104.987 90.424 105.499 90.3209C105.909 90.2017 106.288 89.9944 106.609 89.7135C107.923 88.6024 108.519 86.9061 109.001 85.2691C110.145 81.3759 110.965 77.3944 111.451 73.3656C111.564 72.7286 111.564 72.0767 111.451 71.4397C111.192 70.3286 110.304 69.4656 109.66 68.5101C108.888 67.3683 108.447 66.0352 108.386 64.6583C108.36 63.988 108.386 63.2472 107.964 62.7361C107.683 62.4579 107.343 62.2476 106.968 62.1213C105.217 61.3806 103.47 60.6398 101.715 59.9287C100.656 59.4917 98.7536 58.3288 97.643 59.188C96.6916 59.9287 97.1506 61.6472 96.7434 62.6769C96.1178 64.2398 95.1368 65.725 94.3519 67.2064Z" fill="#FBBEBE"/>
<path opacity="0.1" d="M94.3519 67.2064C93.2636 69.2582 92.1678 71.3286 91.4866 73.5545C90.8055 75.7804 90.5685 78.1914 91.209 80.4284C91.6672 81.8257 92.3043 83.1578 93.1044 84.3914C93.7408 85.5703 94.5479 86.6486 95.4996 87.5913C97.7207 89.6209 100.949 90.0283 103.947 90.3468C104.462 90.4328 104.987 90.424 105.499 90.3209C105.909 90.2017 106.288 89.9944 106.609 89.7135C107.923 88.6024 108.519 86.9061 109.001 85.2691C110.145 81.3759 110.965 77.3944 111.451 73.3656C111.564 72.7286 111.564 72.0767 111.451 71.4397C111.192 70.3286 110.304 69.4656 109.66 68.5101C108.888 67.3683 108.447 66.0352 108.386 64.6583C108.36 63.988 108.386 63.2472 107.964 62.7361C107.683 62.4579 107.343 62.2476 106.968 62.1213C105.217 61.3806 103.47 60.6398 101.715 59.9287C100.656 59.4917 98.7536 58.3288 97.643 59.188C96.6916 59.9287 97.1506 61.6472 96.7434 62.6769C96.1178 64.2398 95.1368 65.725 94.3519 67.2064Z" fill="black"/>
<path d="M105.928 67.8546C111.608 67.8546 116.212 63.2482 116.212 57.5658C116.212 51.8835 111.608 47.2771 105.928 47.2771C100.248 47.2771 95.6439 51.8835 95.6439 57.5658C95.6439 63.2482 100.248 67.8546 105.928 67.8546Z" fill="#FBBEBE"/>
<path d="M109.537 83.5136C107.59 84.2136 105.58 84.8173 103.511 84.8913C101.96 84.9069 100.414 84.7415 98.9017 84.3987C95.7777 83.7771 92.7097 82.9014 89.7282 81.7803C89.0914 83.0358 88.9212 84.4691 88.8656 85.8765C88.7064 90.132 89.5542 94.3542 89.88 98.6022C90.2909 104.002 89.88 109.521 91.2682 114.75C91.3484 113.861 91.6941 113.017 92.2603 112.328C92.7323 111.819 93.2963 111.405 93.9225 111.106C96.7242 109.657 99.9506 109.255 103.022 109.972C104.803 110.395 106.694 111.184 108.382 110.476C109.389 110.05 110.119 109.154 110.678 108.213C111.627 106.516 112.304 104.68 112.684 102.773C113.795 97.8689 113.943 92.7986 114.076 87.7691C114.113 86.4246 114.691 82.4284 113.576 81.4432C112.795 80.7581 112.566 81.7358 112.003 82.2469C111.271 82.8251 110.434 83.2553 109.537 83.5136Z" fill="#F2F2F2"/>
<path d="M95.0627 65.851C94.3779 65.3139 93.3635 65.4806 92.6083 65.9361C91.8531 66.3917 91.2423 67.0213 90.476 67.4361C88.3511 68.588 85.4968 67.7435 83.4793 69.0842C81.5839 70.3472 81.2581 72.9471 81.11 75.2212C80.7398 80.9989 80.4215 86.8173 79.0332 92.4395C78.663 93.9209 78.2188 95.4394 78.3595 96.9653C78.4703 97.8371 78.6763 98.6941 78.974 99.5208L80.7954 105.213C81.6394 107.858 82.4946 110.543 82.5834 113.317C82.6723 116.091 82.0207 118.728 81.3729 121.376C80.0925 126.593 79.259 131.91 78.8814 137.268C78.7667 139.042 78.7186 140.894 79.4367 142.52C80.1771 144.22 81.6801 145.483 83.2646 146.442C84.849 147.402 86.5704 148.142 88.1216 149.161C91.2349 151.209 93.7337 154.435 97.3765 155.276C99.046 155.646 100.793 155.498 102.474 155.172C102.474 155.172 101.523 111.943 98.8757 105.769C96.2288 99.5949 93.8818 72.8509 93.8818 71.9694C93.8818 71.0879 95.0627 65.851 95.0627 65.851Z" fill="#7E7CFF"/>
<path d="M109.36 67.2656C109.36 67.2656 123.261 67.2656 125.319 74.6137C127.377 81.9617 119.444 94.0134 119.444 94.0134C119.444 94.0134 122.676 117.82 124.142 120.172C125.608 122.524 125.026 127.209 125.026 127.209C126.091 130.434 126.292 133.882 125.611 137.209C124.438 142.498 120.029 151.905 120.029 151.905C120.029 151.905 114.154 151.905 112.684 155.431C111.214 158.957 110.922 140.146 110.922 140.146C110.922 140.146 105.636 105.758 105.928 103.702C106.22 101.647 107.69 84.595 108.279 79.8914C108.867 75.1877 110.148 69.0286 109.36 67.2656Z" fill="#7E7CFF"/>
<path d="M120.029 71.9694C120.029 71.9694 126.789 74.0249 126.789 76.3767C126.789 78.7285 128.858 91.3654 128.858 95.4801C128.858 99.5949 127.977 100.184 128.858 101.654C129.739 103.124 119.459 102.536 119.459 102.536L117.589 85.784L120.029 71.9694Z" fill="#6461FF"/>
<path d="M80.0734 93.132C80.0734 93.132 93.2969 94.0135 95.6476 92.2469C97.9984 90.4802 107.986 94.5987 108.867 96.9505C109.748 99.3023 94.7629 99.5949 92.4158 99.5949C90.0688 99.5949 78.8999 103.124 78.8999 103.124L80.0734 93.132Z" fill="#A0616A"/>
<path d="M52.8529 230.045C52.8529 230.045 46.6892 245.6 49.8913 247.452C53.0935 249.304 86.8591 247.985 86.8591 247.985C86.8591 247.985 92.4824 244.504 86.0558 242.089C86.0558 242.089 80.6954 241.822 77.2155 239.678C73.7357 237.534 69.7116 233.515 69.7116 233.515C69.7116 233.515 69.4451 227.619 67.3017 228.96C66.6605 229.382 66.1149 229.934 65.6998 230.58C65.2848 231.227 65.0095 231.952 64.8917 232.711L52.8529 230.045Z" fill="#3F3D56"/>
<path opacity="0.1" d="M52.8529 230.045C52.8529 230.045 46.6892 245.6 49.8913 247.452C53.0935 249.304 86.8591 247.985 86.8591 247.985C86.8591 247.985 92.4824 244.504 86.0558 242.089C86.0558 242.089 80.6954 241.822 77.2155 239.678C73.7357 237.534 69.7116 233.515 69.7116 233.515C69.7116 233.515 69.4451 227.619 67.3017 228.96C66.6605 229.382 66.1149 229.934 65.6998 230.58C65.2848 231.227 65.0095 231.952 64.8917 232.711L52.8529 230.045Z" fill="black"/>
<path d="M43.3426 234.8C43.3426 234.8 36.5865 251.837 40.1108 253.904C43.635 255.97 80.6547 254.493 80.6547 254.493C80.6547 254.493 86.8258 250.674 79.7736 248.026C79.7736 248.026 73.8986 247.733 70.0782 245.382C66.2577 243.03 61.8524 238.611 61.8524 238.611C61.8524 238.611 61.5599 232.145 59.2092 233.615C58.5057 234.078 57.9071 234.684 57.4518 235.392C56.9966 236.101 56.6948 236.897 56.566 237.73L43.3426 234.8Z" fill="#3F3D56"/>
<path d="M78.0189 126.639L73.906 163.675C73.906 163.675 72.4252 181.312 68.031 185.131C68.031 185.131 68.031 190.716 66.5502 192.479L64.4919 215.701C64.4919 215.701 67.4313 224.219 67.1388 225.7C66.8464 227.182 68.3123 231.871 68.0199 232.46C67.7274 233.049 53.9154 232.46 53.9154 232.46L56.8548 185.138L65.9616 119.302L78.0189 126.639Z" fill="#3C354C"/>
<path opacity="0.1" d="M78.0189 126.639L73.906 163.675C73.906 163.675 72.4252 181.312 68.031 185.131C68.031 185.131 68.031 190.716 66.5502 192.479L64.4919 215.701C64.4919 215.701 67.4313 224.219 67.1388 225.7C66.8464 227.182 68.3123 231.871 68.0199 232.46C67.7274 233.049 53.9154 232.46 53.9154 232.46L56.8548 185.138L65.9616 119.302L78.0189 126.639Z" fill="black"/>
<path d="M70.6742 125.461C70.6742 125.461 67.4424 155.735 65.9727 162.201C65.0487 166.46 64.4595 170.784 64.2106 175.134C64.2106 175.134 63.9181 184.542 61.2712 187.186C60.4988 187.952 59.892 188.868 59.4882 189.877C59.0845 190.887 58.8925 191.969 58.9242 193.056C58.9242 193.056 56.2773 222.741 57.7469 226.271C59.2166 229.8 60.6863 232.737 59.2277 235.085C57.7692 237.434 41.599 237.437 41.599 235.674C41.599 233.911 41.599 232.441 40.7179 231.56C39.8368 230.678 40.7179 225.093 40.7179 225.093C40.7179 225.093 37.1936 198.934 40.4255 191.293C43.6573 183.653 45.127 162.775 45.127 162.775C45.127 162.775 42.7762 138.968 39.8368 135.146C36.8975 131.324 40.4255 117.806 40.4255 117.806L70.6742 125.461Z" fill="#3C354C"/>
<path d="M62.404 31.4477C62.7446 32.2255 63.5627 32.6588 64.3068 33.0699C68.6196 35.4476 72.229 38.8957 75.7829 42.3031C74.8958 39.2925 75.0857 36.0667 76.3197 33.181C76.7417 32.1995 77.3007 31.1403 76.9971 30.1144C76.7713 29.3737 76.1309 28.8107 75.5163 28.3292C74.0652 27.2065 72.5484 26.1713 70.974 25.2293C69.8635 24.57 67.6127 22.8182 66.3503 23.0071C66.2837 24.7145 66.2503 26.2404 65.5025 27.8218C65.3174 28.2144 62.5336 31.744 62.404 31.4477Z" fill="#A0616A"/>
<path d="M77.4303 35.2254C84.0832 35.2254 89.4765 29.8297 89.4765 23.1737C89.4765 16.5178 84.0832 11.1221 77.4303 11.1221C70.7774 11.1221 65.3841 16.5178 65.3841 23.1737C65.3841 29.8297 70.7774 35.2254 77.4303 35.2254Z" fill="#A0616A"/>
<path d="M78.0189 51.6882C78.0189 51.6882 80.0734 41.3994 74.1984 37.8735C68.3234 34.3477 61.5673 30.2329 61.5673 30.2329C61.5673 30.2329 59.509 29.9366 58.628 34.3477C58.628 34.3477 41.884 37.581 40.1182 53.4511C38.3523 69.3212 41.2954 92.5431 41.2954 92.5431C41.2954 92.5431 38.6522 112.824 35.4204 123.698C35.4204 123.698 32.7735 126.05 44.5272 122.524C56.2809 118.998 76.8416 132.524 76.8416 132.524C76.8416 132.524 78.8999 130.465 78.8999 128.994C78.8999 127.524 81.2507 118.995 81.2507 118.995C81.2507 118.995 83.3053 82.8433 84.1863 78.7285C85.0674 74.6138 80.6621 52.277 78.0189 51.6882Z" fill="#6461FF"/>
<path d="M59.8052 71.9693C59.8052 71.9693 75.9606 62.562 72.7288 50.5104C69.497 38.4587 62.4484 34.6402 62.4484 34.6402C62.4484 34.6402 50.9909 30.8181 41.2954 43.1586L41.884 48.7437C41.884 48.7437 52.4605 27.2885 63.9181 40.8068C75.3757 54.3251 59.8052 71.9693 59.8052 71.9693Z" fill="#13F1FC"/>
<path d="M42.4689 43.7512V91.9467L39.4666 108.387L38.0636 116.05H27.7943L13.4011 110.758V75.2026C13.4011 75.2026 25.4436 51.3918 29.264 46.9844C33.0844 42.5771 42.4689 43.7512 42.4689 43.7512Z" fill="#13F1FC"/>
<path opacity="0.1" d="M39.463 108.391L38.0636 116.054H27.7796L13.3863 110.765L39.463 108.391Z" fill="black"/>
<path d="M38.9446 98.1245L64.2105 67.262L41.8803 99.3022L39.5296 99.8874L38.9446 98.1245Z" fill="#13F1FC"/>
<path d="M74.5908 24.4182C75.2757 23.9552 76.1346 23.8701 76.9564 23.7886C77.7782 23.7071 78.6371 23.596 79.2923 23.0923C80.4288 22.2182 80.514 20.5294 81.3469 19.3627C82.5501 17.6701 84.9527 17.4664 87.0295 17.5479C88.2992 17.5998 89.6653 17.6775 90.7314 16.9924C91.7976 16.3072 92.3233 14.9554 92.6935 13.7072C93.134 12.2258 93.4153 10.4184 92.3233 9.32211C91.5829 8.55916 90.3834 8.40731 89.5468 7.73695C88.7101 7.06659 88.3214 5.91475 87.8513 4.91107C87.3145 3.68496 86.4657 2.62118 85.3895 1.82592C83.8124 0.714829 81.7986 0.485203 79.8773 0.503722C77.9559 0.52224 76.0272 0.777791 74.1207 0.540757C72.5585 0.348168 71 -0.170342 69.4451 0.0592847C67.4609 0.351873 65.8209 1.85185 64.8399 3.60368C63.8589 5.3555 63.4442 7.35547 63.037 9.31841L61.9264 14.6628C61.5859 16.322 61.2416 18.022 61.5044 19.6923C62.0523 23.159 65.1175 25.9145 65.3285 29.4144C65.5301 28.4475 65.9684 27.5457 66.6042 26.7901C67.24 26.0344 68.0533 25.4485 68.9713 25.0848C69.2009 24.9726 69.4614 24.94 69.7117 24.9923C70.0152 25.0923 70.1929 25.396 70.3854 25.6515C70.8889 26.3219 72.4696 27.3367 73.347 26.8626C74.1836 26.4367 73.5839 25.1034 74.5908 24.4182Z" fill="#3F3D56"/>
<path d="M151.466 173.96C151.466 173.96 143.533 174.253 142.359 183.364C141.185 192.475 142.359 234.8 142.359 234.8C142.359 234.8 151.466 241.56 162.631 240.678C173.796 239.797 191.714 236.563 191.714 236.563V186.934C191.714 179.527 185.539 173.486 178.142 173.912C177.968 173.912 177.772 173.935 177.613 173.953L151.466 173.96Z" fill="#3C354C"/>
<path d="M162.923 247.437C165.843 247.437 168.21 245.069 168.21 242.148C168.21 239.227 165.843 236.859 162.923 236.859C160.004 236.859 157.637 239.227 157.637 242.148C157.637 245.069 160.004 247.437 162.923 247.437Z" fill="#3F3D56"/>
<path d="M191.714 245.085C194.633 245.085 197 242.717 197 239.797C197 236.876 194.633 234.508 191.714 234.508C188.794 234.508 186.427 236.876 186.427 239.797C186.427 242.717 188.794 245.085 191.714 245.085Z" fill="#3F3D56"/>
<path d="M44.2348 79.3174C44.2348 79.3174 42.1765 92.2468 50.6947 91.0728C50.6947 91.0728 55.1037 90.4839 55.6923 91.0728C56.2809 91.6616 78.0189 87.8395 80.9582 84.6062C80.9582 84.6062 84.4825 83.4321 86.2446 85.1951C88.0068 86.958 105.636 88.7209 100.353 83.4284C95.0701 78.1359 86.8407 76.9619 86.8407 76.9619L75.6755 77.547C75.6755 77.547 69.8005 79.3137 66.2763 77.547C62.752 75.7804 52.753 76.3915 52.753 76.3915L44.2348 79.3174Z" fill="#A0616A"/>
<path d="M56.2773 38.4624C56.2773 38.4624 43.0576 39.9439 43.0576 59.0362V83.4284C43.0576 83.4284 50.4023 80.1951 51.8719 80.4877C53.3416 80.7803 59.2166 76.6655 59.2166 76.6655C59.2166 76.6655 65.9727 60.7991 65.3841 56.3918C64.7955 51.9844 65.0916 39.0476 56.2773 38.4624Z" fill="#3F3D56"/>
<path d="M116.797 85.7803L103.577 95.1875L111.803 96.069L123.261 86.3692L116.797 85.7803Z" fill="#3F3D56"/>
<path d="M127.081 99.8911C127.081 99.8911 130.313 109.891 125.908 112.824C121.502 115.758 114.154 102.536 114.154 102.536C114.154 102.536 106.22 93.132 111.511 91.0727C116.801 89.0135 118.959 97.98 118.959 97.98L125.896 104.006L127.081 99.8911Z" fill="#FBBEBE"/>
<path d="M106.957 57.4177C113.446 57.4177 118.707 54.0615 118.707 49.9215C118.707 45.7814 113.446 42.4253 106.957 42.4253C100.468 42.4253 95.2071 45.7814 95.2071 49.9215C95.2071 54.0615 100.468 57.4177 106.957 57.4177Z" fill="#3F3D56"/>
<path d="M109.012 40.3698C113.716 40.3698 117.53 36.5543 117.53 31.8477C117.53 27.1411 113.716 23.3256 109.012 23.3256C104.307 23.3256 100.493 27.1411 100.493 31.8477C100.493 36.5543 104.307 40.3698 109.012 40.3698Z" fill="#3F3D56"/>
<path d="M77.4303 21.559C83.6763 21.559 88.7398 18.9274 88.7398 15.6813C88.7398 12.4351 83.6763 9.80359 77.4303 9.80359C71.1842 9.80359 66.1208 12.4351 66.1208 15.6813C66.1208 18.9274 71.1842 21.559 77.4303 21.559Z" fill="#3F3D56"/>
<path d="M66.8537 26.5551C69.0434 26.5551 70.8186 22.146 70.8186 16.7071C70.8186 11.2682 69.0434 6.85913 66.8537 6.85913C64.664 6.85913 62.8889 11.2682 62.8889 16.7071C62.8889 22.146 64.664 26.5551 66.8537 26.5551Z" fill="#3F3D56"/>
</g>
<defs>
<clipPath id="clip0">
<rect width="197" height="255" fill="white"/>
</clipPath>
</defs>
</svg>
