<svg width="1381" height="473" viewBox="0 0 1381 473" fill="none" xmlns="http://www.w3.org/2000/svg">
<g clip-path="url(#clip0)">
<path d="M230.051 171.623C236.696 164.407 241.632 155.922 244.526 146.74C247.42 137.559 248.204 127.895 246.826 118.401C245.448 108.907 241.94 99.8043 236.539 91.7074C231.137 83.6104 223.968 76.7077 215.515 71.4655C219.886 65.0385 222.203 57.5477 222.186 49.8981C222.186 28.2694 204.129 10.7334 181.809 10.7334C172.997 10.7906 164.445 13.5738 157.45 18.661C150.455 23.7482 145.399 30.8618 143.048 38.9228C137.796 30.375 130.282 23.2776 121.252 18.3332C112.221 13.3889 101.986 10.7691 91.5603 10.7334C58.3549 10.7334 31.432 36.7921 31.432 69.1049C31.4268 75.9751 32.6725 82.7945 35.1143 89.262C33.8869 89.1701 32.6756 89.0781 31.432 89.0781C4.76749 89.0781 -16.8419 110.048 -16.8419 135.922C-16.8419 137.455 -16.745 139.095 -16.5835 140.659C-27.4331 145.277 -36.6356 152.787 -43.0724 162.276C-49.5092 171.765 -52.903 182.824 -52.8413 194.11C-52.8413 226.3 -25.9992 252.359 7.09317 252.359C10.5751 252.357 14.05 252.064 17.4779 251.485C17.3003 253.416 17.1872 255.378 17.1872 257.356C17.1872 293.409 47.3079 322.641 84.4379 322.641C98.1985 322.634 111.612 318.539 122.795 310.929C131.786 318.423 143.341 322.558 155.306 322.564C183.069 322.564 205.551 300.736 205.551 273.788C205.551 272.623 205.454 271.474 205.373 270.339H205.551C235.267 270.339 259.364 246.948 259.364 218.115C259.409 208.565 256.702 199.185 251.535 190.991C246.369 182.796 238.939 176.098 230.051 171.623Z" fill="url(#paint0_linear)"/>
<path d="M120.647 102.292H112.782V465.917H120.647V102.292Z" fill="#DCE7FF"/>
<path d="M176.558 143.332L112.068 209.431L117.839 214.503L182.329 148.404L176.558 143.332Z" fill="#DCE7FF"/>
<path d="M50.4289 218.688L45.7394 224.681L112.605 271.813L117.294 265.82L50.4289 218.688Z" fill="#DCE7FF"/>
<path d="M145.406 244.794C135.305 234.595 129.675 221.129 129.659 207.132C129.716 197.475 132.408 187.998 137.475 179.624C142.542 171.25 149.81 164.265 158.569 159.352C154.64 153.943 152.533 147.529 152.528 140.958C152.528 122.564 168.84 107.542 188.98 107.542C196.753 107.47 204.345 109.767 210.64 114.097C216.934 118.426 221.598 124.559 223.946 131.592C228.913 124.175 235.785 118.078 243.915 113.871C252.045 109.664 261.167 107.486 270.427 107.542C300.419 107.542 324.741 129.83 324.741 157.329C324.755 163.205 323.639 169.033 321.446 174.528C322.545 174.451 323.643 174.375 324.773 174.375C348.838 174.375 368.38 192.263 368.38 214.336C368.378 215.688 368.302 217.039 368.154 218.383C377.745 222.071 385.968 228.378 391.781 236.504C397.594 244.63 400.736 254.21 400.81 264.032C400.81 291.455 376.584 313.666 346.674 313.666C343.534 313.665 340.401 313.414 337.306 312.915C337.468 314.57 337.565 316.241 337.565 317.927C337.565 348.692 310.383 373.632 276.839 373.632C264.542 373.638 252.521 370.17 242.309 363.668C234.034 370.115 223.653 373.627 212.947 373.601C187.882 373.601 167.565 354.961 167.565 331.984C167.565 330.987 167.661 330.006 167.726 329.041H167.565C140.739 329.041 118.984 309.113 118.984 284.48C119.047 276.184 121.556 268.07 126.225 261.057C130.895 254.043 137.539 248.41 145.406 244.794Z" fill="url(#paint1_linear)"/>
<path d="M253.243 186.53H243.423V496.077H253.243V186.53Z" fill="#DCE7FF"/>
<path d="M194.598 219.608L187.586 226.132L245.823 282.517L252.835 275.992L194.598 219.608Z" fill="#DCE7FF"/>
<path d="M306.896 283.663L246.521 323.877L252.161 331.506L312.537 291.292L306.896 283.663Z" fill="#DCE7FF"/>
<path d="M349.516 163.836H343.621V184.346H349.516V163.836Z" fill="#70DDFF"/>
<path d="M349.516 158.241H294.507V163.836H349.516V158.241Z" fill="#70DDFF"/>
<path d="M345.139 218.835C356.173 218.835 365.117 210.346 365.117 199.874C365.117 189.401 356.173 180.912 345.139 180.912C334.106 180.912 325.161 189.401 325.161 199.874C325.161 210.346 334.106 218.835 345.139 218.835Z" fill="url(#paint2_linear)"/>
<path d="M345.139 214.283C355.308 214.283 363.551 206.459 363.551 196.808C363.551 187.157 355.308 179.333 345.139 179.333C334.971 179.333 326.728 187.157 326.728 196.808C326.728 206.459 334.971 214.283 345.139 214.283Z" fill="#FFEB3B"/>
<path d="M300.402 104.162H294.507V382.009H300.402V104.162Z" fill="#70DDFF"/>
<path d="M297.011 107.473C305.11 107.473 311.675 101.241 311.675 93.5544C311.675 85.8675 305.11 79.636 297.011 79.636C288.912 79.636 282.346 85.8675 282.346 93.5544C282.346 101.241 288.912 107.473 297.011 107.473Z" fill="#4F79A4"/>
<path d="M373.096 178.751H318.087V184.346H373.096V178.751Z" fill="#70DDFF"/>
<path d="M296.672 462.208C286.351 462.208 277.921 464.554 277.921 454.759V383.557C277.934 378.839 279.913 374.318 283.426 370.981C286.939 367.644 291.701 365.761 296.672 365.745C301.642 365.761 306.404 367.644 309.917 370.981C313.43 374.318 315.41 378.839 315.422 383.557V454.759C315.422 464.554 306.992 462.208 296.672 462.208Z" fill="#70DDFF"/>
<path d="M1287.84 163.836H1281.95V184.346H1287.84V163.836Z" fill="#70DDFF"/>
<path d="M1336.96 158.241H1281.95V163.836H1336.96V158.241Z" fill="#70DDFF"/>
<path d="M1286.31 218.835C1297.34 218.835 1306.29 210.346 1306.29 199.874C1306.29 189.401 1297.34 180.912 1286.31 180.912C1275.28 180.912 1266.33 189.401 1266.33 199.874C1266.33 210.346 1275.28 218.835 1286.31 218.835Z" fill="url(#paint3_linear)"/>
<path d="M1286.31 214.283C1296.48 214.283 1304.72 206.459 1304.72 196.808C1304.72 187.157 1296.48 179.333 1286.31 179.333C1276.14 179.333 1267.9 187.157 1267.9 196.808C1267.9 206.459 1276.14 214.283 1286.31 214.283Z" fill="#FFEB3B"/>
<path d="M1336.96 104.162H1331.06V382.009H1336.96V104.162Z" fill="#70DDFF"/>
<path d="M1334.45 107.473C1342.55 107.473 1349.12 101.241 1349.12 93.5544C1349.12 85.8675 1342.55 79.636 1334.45 79.636C1326.36 79.636 1319.79 85.8675 1319.79 93.5544C1319.79 101.241 1326.36 107.473 1334.45 107.473Z" fill="#4F79A4"/>
<path d="M1313.38 178.751H1258.37V184.346H1313.38V178.751Z" fill="#70DDFF"/>
<path d="M1334.78 462.208C1345.1 462.208 1353.53 464.554 1353.53 454.759V383.557C1353.52 378.839 1351.54 374.318 1348.02 370.981C1344.51 367.644 1339.75 365.761 1334.78 365.745C1329.81 365.761 1325.04 367.644 1321.53 370.981C1318.02 374.318 1316.04 378.839 1316.03 383.557V454.759C1316.03 464.554 1324.39 462.208 1334.78 462.208Z" fill="#70DDFF"/>
<g opacity="0.1">
<path opacity="0.1" d="M674.722 299.448C674.722 299.448 674.722 299.28 674.722 299.203C674.8 299.263 674.865 299.336 674.916 299.418C675.101 299.808 675.189 300.232 675.175 300.659C675.168 300.71 675.168 300.762 675.175 300.813C674.942 300.386 674.789 299.924 674.722 299.448Z" fill="black"/>
</g>
<path d="M1028.34 454.191C1028.64 454.191 1028.89 453.958 1028.89 453.67C1028.89 453.382 1028.64 453.149 1028.34 453.149C1028.03 453.149 1027.79 453.382 1027.79 453.67C1027.79 453.958 1028.03 454.191 1028.34 454.191Z" fill="#E8F5FF"/>
<path d="M1023.7 449.255C1024.01 449.255 1024.25 449.022 1024.25 448.734C1024.25 448.446 1024.01 448.213 1023.7 448.213C1023.4 448.213 1023.15 448.446 1023.15 448.734C1023.15 449.022 1023.4 449.255 1023.7 449.255Z" fill="#E8F5FF"/>
<path d="M1021.99 451.6C1022.29 451.6 1022.54 451.367 1022.54 451.079C1022.54 450.791 1022.29 450.558 1021.99 450.558C1021.69 450.558 1021.44 450.791 1021.44 451.079C1021.44 451.367 1021.69 451.6 1021.99 451.6Z" fill="#E8F5FF"/>
<path d="M1020.07 453.455C1020.37 453.455 1020.62 453.222 1020.62 452.934C1020.62 452.646 1020.37 452.413 1020.07 452.413C1019.77 452.413 1019.52 452.646 1019.52 452.934C1019.52 453.222 1019.77 453.455 1020.07 453.455Z" fill="#E8F5FF"/>
<path d="M1025.51 455.003C1025.81 455.003 1026.06 454.77 1026.06 454.482C1026.06 454.194 1025.81 453.961 1025.51 453.961C1025.21 453.961 1024.96 454.194 1024.96 454.482C1024.96 454.77 1025.21 455.003 1025.51 455.003Z" fill="#E8F5FF"/>
<path opacity="0.1" d="M1167.26 455.556C1167.26 455.556 1167.26 455.556 1167.39 455.724C1167.52 455.893 1167.28 455.586 1167.26 455.556Z" fill="black"/>
</g>
<defs>
<linearGradient id="paint0_linear" x1="20.5" y1="44.54" x2="124.5" y2="314.54" gradientUnits="userSpaceOnUse">
<stop stop-color="#0470DC"/>
<stop offset="1" stop-color="#70DDFF"/>
</linearGradient>
<linearGradient id="paint1_linear" x1="216" y1="183.569" x2="333" y2="454.569" gradientUnits="userSpaceOnUse">
<stop stop-color="#0470DC"/>
<stop offset="1" stop-color="#6BD7FD"/>
<stop offset="1" stop-color="#70DDFF"/>
</linearGradient>
<linearGradient id="paint2_linear" x1="10422.5" y1="5581.53" x2="10422.5" y2="4642.94" gradientUnits="userSpaceOnUse">
<stop stop-color="#808080" stop-opacity="0.25"/>
<stop offset="0.54" stop-color="#808080" stop-opacity="0.12"/>
<stop offset="1" stop-color="#808080" stop-opacity="0.1"/>
</linearGradient>
<linearGradient id="paint3_linear" x1="-20578" y1="14206" x2="-20578" y2="13267.4" gradientUnits="userSpaceOnUse">
<stop stop-color="#808080" stop-opacity="0.25"/>
<stop offset="0.54" stop-color="#808080" stop-opacity="0.12"/>
<stop offset="1" stop-color="#808080" stop-opacity="0.1"/>
</linearGradient>
<clipPath id="clip0">
<rect width="1444" height="653" fill="white" transform="translate(-63 0.540039)"/>
</clipPath>
</defs>
</svg>
